<?xml version="1.0" encoding="utf-8"?>
<!DOCTYPE svg PUBLIC "-//W3C//DTD SVG 1.1//EN" "http://www.w3.org/Graphics/SVG/1.1/DTD/svg11.dtd">
<svg version="1.1" baseProfile="full"
 xmlns="http://www.w3.org/2000/svg"
 xmlns:xlink="http://www.w3.org/1999/xlink"
 xmlns:ev="http://www.w3.org/2001/xml-events" 
  height="13px" 
  width="37px" 
>
<path fill="rgb( 160, 188, 211 )"
 d="M37,7.96900000000005 C37,7.96900000000005 6.65300000000001,7.96900000000005 6.65300000000001,7.96900000000005 C6.65300000000001,7.96900000000005 9.06100000000001,10.3770000000004 9.06100000000001,10.3770000000004 C9.06100000000001,10.3770000000004 6.93899999999999,12.4979999999996 6.93899999999999,12.4979999999996 C6.93899999999999,12.4979999999996 0.93899999999999,6.49799999999959 0.93899999999999,6.49799999999959 C0.93899999999999,6.49799999999959 1.04600000000001,6.39099999999962 1.04600000000001,6.39099999999962 C1.04600000000001,6.39099999999962 1.002,6.34699999999975 1.002,6.34699999999975 C1.002,6.34699999999975 6.90900000000001,0.43900000000031 6.90900000000001,0.43900000000031 C6.90900000000001,0.43900000000031 8.998,2.52800000000025 8.998,2.52800000000025 C8.998,2.52800000000025 6.557,4.96900000000005 6.557,4.96900000000005 C6.557,4.96900000000005 37,4.96900000000005 37,4.96900000000005 C37,4.96900000000005 37,7.96900000000005 37,7.96900000000005 Z "/>
</svg>
