<?xml version="1.0" encoding="utf-8"?>
<!DOCTYPE svg PUBLIC "-//W3C//DTD SVG 1.1//EN" "http://www.w3.org/Graphics/SVG/1.1/DTD/svg11.dtd">
<svg version="1.1" baseProfile="full"
 xmlns="http://www.w3.org/2000/svg"
 xmlns:xlink="http://www.w3.org/1999/xlink"
 xmlns:ev="http://www.w3.org/2001/xml-events" 
  height="15px" 
  width="14px" 
>
<path fill="rgb( 255, 255, 255 )"
 d="M0.182,14.01 C0.182,14.01 3.181,14.01 3.181,14.01 C3.181,14.01 3.181,5.225 3.181,5.225 C3.181,5.225 0.182,5.225 0.182,5.225 C0.182,5.225 0.182,14.01 0.182,14.01 ZM1.701,0.99 C0.676,0.99 0.005,1.646 0.005,2.507 C0.005,3.351 0.655,4.026 1.662,4.026 C1.662,4.026 1.682,4.026 1.682,4.026 C2.727,4.026 3.378,3.351 3.378,2.507 C3.359,1.646 2.727,0.99 1.701,0.99 ZM13.995,8.973 C13.995,6.274 12.516,5.018 10.543,5.018 C8.947,5.018 8.238,5.873 7.84,6.472 C7.84,6.472 7.84,5.225 7.84,5.225 C7.84,5.225 4.841,5.225 4.841,5.225 C4.88,6.049 4.841,14.01 4.841,14.01 C4.841,14.01 7.84,14.01 7.84,14.01 C7.84,14.01 7.84,9.104 7.84,9.104 C7.84,8.842 7.859,8.579 7.938,8.392 C8.155,7.867 8.649,7.324 9.477,7.324 C10.563,7.324 10.996,8.13 10.996,9.31 C10.996,9.31 10.996,14.01 10.996,14.01 C10.996,14.01 13.995,14.01 13.995,14.01 C13.995,14.01 13.995,8.973 13.995,8.973 ZM7.82,6.499 C7.825,6.491 7.834,6.48 7.84,6.472 C7.84,6.472 7.84,6.499 7.84,6.499 C7.84,6.499 7.82,6.499 7.82,6.499 Z "/>
</svg>
