<?xml version="1.0" encoding="utf-8"?>
<!DOCTYPE svg PUBLIC "-//W3C//DTD SVG 1.1//EN" "http://www.w3.org/Graphics/SVG/1.1/DTD/svg11.dtd">
<svg version="1.1" baseProfile="full"
 xmlns="http://www.w3.org/2000/svg"
 xmlns:xlink="http://www.w3.org/1999/xlink"
 xmlns:ev="http://www.w3.org/2001/xml-events" 
  height="12px" 
  width="15px" 
>
<path fill="rgb( 255, 255, 255 )"
 d="M14.356,0.009 C14.356,0.009 8.09999999999999,4.789 8.09999999999999,4.789 C8.09999999999999,4.789 1.64,0.009 1.64,0.009 C1.64,0.009 14.356,0.009 14.356,0.009 ZM15,11.011 C15,11.011 0.996,11.011 0.996,11.011 C0.996,11.011 0.996,2.028 0.996,2.028 C0.996,2.028 7.45099999999999,6.759 7.45099999999999,6.759 C7.624,6.887 7.88,6.951 8.087,6.951 C8.298,6.951 8.48099999999999,6.884 8.65600000000001,6.751 C8.65600000000001,6.751 15,1.874 15,1.874 C15,1.874 15,11.011 15,11.011 Z "/>
</svg>
