<?xml version="1.0" encoding="utf-8"?>
<!DOCTYPE svg PUBLIC "-//W3C//DTD SVG 1.1//EN" "http://www.w3.org/Graphics/SVG/1.1/DTD/svg11.dtd">
<svg version="1.1" baseProfile="full"
 xmlns="http://www.w3.org/2000/svg"
 xmlns:xlink="http://www.w3.org/1999/xlink"
 xmlns:ev="http://www.w3.org/2001/xml-events" 
  height="13px" 
  width="37px" 
>
<path fill="rgb( 160, 188, 211 )"
 d="M0,7.96900000000005 C0,7.96900000000005 30.347,7.96900000000005 30.347,7.96900000000005 C30.347,7.96900000000005 27.9390000000001,10.3770000000004 27.9390000000001,10.3770000000004 C27.9390000000001,10.3770000000004 30.0609999999999,12.4979999999996 30.0609999999999,12.4979999999996 C30.0609999999999,12.4979999999996 36.0609999999999,6.49799999999959 36.0609999999999,6.49799999999959 C36.0609999999999,6.49799999999959 35.954,6.39099999999962 35.954,6.39099999999962 C35.954,6.39099999999962 35.998,6.34699999999975 35.998,6.34699999999975 C35.998,6.34699999999975 30.0899999999999,0.43900000000031 30.0899999999999,0.43900000000031 C30.0899999999999,0.43900000000031 28.002,2.52800000000025 28.002,2.52800000000025 C28.002,2.52800000000025 30.442,4.96900000000005 30.442,4.96900000000005 C30.442,4.96900000000005 0,4.96900000000005 0,4.96900000000005 C0,4.96900000000005 0,7.96900000000005 0,7.96900000000005 Z "/>
</svg>
