<?xml version="1.0" encoding="utf-8"?>
<!DOCTYPE svg PUBLIC "-//W3C//DTD SVG 1.1//EN" "http://www.w3.org/Graphics/SVG/1.1/DTD/svg11.dtd">
<svg version="1.1" baseProfile="full"
 xmlns="http://www.w3.org/2000/svg"
 xmlns:xlink="http://www.w3.org/1999/xlink"
 xmlns:ev="http://www.w3.org/2001/xml-events" 
  height="17px" 
  width="20px" 
>
<path fill="rgb( 255, 255, 255 )"
 d="M19.185,2.815 C18.49,3.123 17.744,3.331 16.96,3.425 C17.76,2.945 18.374,2.186 18.664,1.281 C17.915,1.726 17.086,2.048 16.204,2.222 C15.497,1.469 14.49,0.998 13.376,0.998 C11.236,0.998 9.501,2.733 9.501,4.872 C9.501,5.176 9.536,5.471 9.602,5.755 C6.38200000000001,5.593 3.52799999999999,4.051 1.61699999999999,1.707 C1.28299999999999,2.279 1.09200000000001,2.945 1.09200000000001,3.655 C1.09200000000001,4.999 1.77600000000001,6.185 2.816,6.879 C2.18100000000001,6.859 1.583,6.685 1.06100000000001,6.395 C1.06100000000001,6.411 1.06100000000001,6.427 1.06100000000001,6.443 C1.06100000000001,8.321 2.39599999999999,9.887 4.16800000000001,10.242 C3.84299999999999,10.331 3.501,10.379 3.148,10.379 C2.898,10.379 2.655,10.354 2.41900000000001,10.309 C2.91200000000001,11.848 4.34299999999999,12.968 6.03800000000001,12.999 C4.71199999999999,14.038 3.041,14.657 1.226,14.657 C0.91399999999999,14.657 0.60499999999999,14.64 0.30199999999999,14.603 C2.017,15.703 4.053,16.344 6.24100000000001,16.344 C13.367,16.344 17.263,10.441 17.263,5.321 C17.263,5.153 17.26,4.987 17.252,4.82 C18.009,4.274 18.666,3.592 19.185,2.815 Z "/>
</svg>
