<?xml version="1.0" encoding="utf-8"?>
<!DOCTYPE svg PUBLIC "-//W3C//DTD SVG 1.1//EN" "http://www.w3.org/Graphics/SVG/1.1/DTD/svg11.dtd">
<svg version="1.1" baseProfile="full"
 xmlns="http://www.w3.org/2000/svg"
 xmlns:xlink="http://www.w3.org/1999/xlink"
 xmlns:ev="http://www.w3.org/2001/xml-events" 
  height="19px" 
  width="10px" 
>
<path fill="rgb( 255, 255, 255 )"
 d="M9.29900000000001,3.686 C9.29900000000001,3.686 7.59800000000001,3.686 7.59800000000001,3.686 C6.42699999999999,3.686 6.465,4.132 6.465,4.947 C6.465,4.947 6.465,6.237 6.465,6.237 C6.465,6.237 9.29900000000001,6.237 9.29900000000001,6.237 C9.29900000000001,6.237 8.732,9.638 8.732,9.638 C8.732,9.638 6.465,9.638 6.465,9.638 C6.465,9.638 6.465,18.707 6.465,18.707 C6.465,18.707 2.49700000000001,18.707 2.49700000000001,18.707 C2.49700000000001,18.707 2.49700000000001,9.638 2.49700000000001,9.638 C2.49700000000001,9.638 0.797,9.638 0.797,9.638 C0.797,9.638 0.797,6.237 0.797,6.237 C0.797,6.237 2.49700000000001,6.237 2.49700000000001,6.237 C2.49700000000001,6.237 2.49700000000001,4.635 2.49700000000001,4.635 C2.49700000000001,2.085 3.76900000000001,0.569 6.77699999999999,0.569 C6.77699999999999,0.569 9.29900000000001,0.569 9.29900000000001,0.569 C9.29900000000001,0.569 9.29900000000001,3.686 9.29900000000001,3.686 Z "/>
</svg>
